# xmcd CD database file
#
# Track frame offsets:
#	150
#	20100
#	40304
#	59735
#	83344
#	106894
#	122494
#	139763
#	157257
#	175857
#	191671
#	207121
#	225061
#	246586
#	263686
#	278986
#	295835
#
# Disc length: 4198 seconds
#
# Revision: 0
# Processed by: cddbd v1.5.2PL0 Copyright (c) Steve Scherf et al.
# Submitted via: CDex 1.51
#
DISCID=f2106411
DTITLE=Kaelte - Gegengift
DYEAR=2009
DGENRE=Blues
TTITLE0=Die unerträgliche Leichtigkeit des Seins
TTITLE1=Kopfueber am Rand der Mitte
TTITLE2=Rund wie ein Mandala
TTITLE3=Gegengift
TTITLE4=Von Angst und Schuld
TTITLE5=Traenenwasser
TTITLE6=Alles anders
TTITLE7=Blicke die töten
TTITLE8=Traurige Augen
TTITLE9=Keine Ufer
TTITLE10=Schönheit zu sehen
TTITLE11=Nicht mehr weit
TTITLE12=Rote Stimme
TTITLE13=Auf dem Schiff
TTITLE14=Sehnsucht
TTITLE15=Tränen in mein Herz
TTITLE16=Agonie
EXTD=YEAR: 2009
EXTT0=
EXTT1=
EXTT2=
EXTT3=
EXTT4=
EXTT5=
EXTT6=
EXTT7=
EXTT8=
EXTT9=
EXTT10=
EXTT11=
EXTT12=
EXTT13=
EXTT14=
EXTT15=
EXTT16=
PLAYORDER=
